<svg width="280" height="27" viewBox="0 0 280 27" fill="none" xmlns="http://www.w3.org/2000/svg">
<path d="M0.45 26V0.799999H4.1075V12.56L14.66 0.799999H19.21L8.0625 13.1025L20.0325 26H15.3425L4.1075 13.96V26H0.45ZM22.8459 26V0.799999H26.5034V22.5525H37.9134V26H22.8459ZM40.8846 26V0.799999H56.9846V4.2475H44.5421V11.3175H54.8846V14.765H44.5421V22.5525H56.9846V26H40.8846ZM61.1873 26V0.799999H64.8973L77.3048 19.525V0.799999H81.0148V26H77.3048L64.8973 7.2575V26H61.1873ZM85.1992 26V25.4225L98.0617 4.2475H85.8992V0.799999H104.344V1.395L91.5517 22.535H104.117V26H85.1992ZM115.567 26V0.799999H125.752C125.997 0.799999 126.301 0.811666 126.662 0.834999C127.024 0.846666 127.368 0.881666 127.695 0.939999C129.095 1.16167 130.261 1.64 131.195 2.375C132.14 3.11 132.846 4.0375 133.312 5.1575C133.779 6.2775 134.012 7.51417 134.012 8.8675C134.012 10.2325 133.779 11.475 133.312 12.595C132.846 13.715 132.14 14.6425 131.195 15.3775C130.261 16.1125 129.095 16.5908 127.695 16.8125C127.368 16.8592 127.018 16.8942 126.645 16.9175C126.283 16.9408 125.986 16.9525 125.752 16.9525H119.225V26H115.567ZM119.225 13.4875H125.612C125.846 13.4875 126.102 13.4758 126.382 13.4525C126.674 13.4292 126.948 13.3883 127.205 13.33C127.951 13.155 128.552 12.8342 129.007 12.3675C129.462 11.8892 129.789 11.3408 129.987 10.7225C130.186 10.1042 130.285 9.48583 130.285 8.8675C130.285 8.24917 130.186 7.63667 129.987 7.03C129.789 6.41167 129.462 5.86917 129.007 5.4025C128.552 4.92417 127.951 4.5975 127.205 4.4225C126.948 4.3525 126.674 4.30583 126.382 4.2825C126.102 4.25917 125.846 4.2475 125.612 4.2475H119.225V13.4875ZM137.861 26V0.799999H141.518V26H137.861ZM157.291 26.525C154.771 26.525 152.624 25.9767 150.851 24.88C149.077 23.7717 147.718 22.2317 146.773 20.26C145.84 18.2883 145.373 16.0017 145.373 13.4C145.373 10.7983 145.84 8.51167 146.773 6.54C147.718 4.56833 149.077 3.03417 150.851 1.9375C152.624 0.829166 154.771 0.274999 157.291 0.274999C160.196 0.274999 162.599 1.01 164.501 2.48C166.414 3.95 167.744 5.9275 168.491 8.4125L164.781 9.41C164.291 7.64833 163.416 6.26583 162.156 5.2625C160.907 4.25917 159.286 3.7575 157.291 3.7575C155.506 3.7575 154.018 4.16 152.828 4.965C151.638 5.77 150.74 6.89583 150.133 8.3425C149.538 9.78917 149.241 11.475 149.241 13.4C149.229 15.325 149.521 17.0108 150.116 18.4575C150.722 19.9042 151.621 21.03 152.811 21.835C154.012 22.64 155.506 23.0425 157.291 23.0425C159.286 23.0425 160.907 22.5408 162.156 21.5375C163.416 20.5225 164.291 19.14 164.781 17.39L168.491 18.3875C167.744 20.8725 166.414 22.85 164.501 24.32C162.599 25.79 160.196 26.525 157.291 26.525ZM178.622 26V4.2475H170.24V0.799999H190.662V4.2475H182.28V26H178.622ZM203.508 26.525C201.536 26.525 199.792 26.1225 198.275 25.3175C196.77 24.5008 195.592 23.3633 194.74 21.905C193.889 20.435 193.463 18.7083 193.463 16.725V0.8175L197.173 0.799999V16.5325C197.173 17.6058 197.354 18.5508 197.715 19.3675C198.077 20.1842 198.561 20.8667 199.168 21.415C199.774 21.9633 200.451 22.3775 201.198 22.6575C201.956 22.9375 202.726 23.0775 203.508 23.0775C204.301 23.0775 205.071 22.9375 205.818 22.6575C206.576 22.3658 207.259 21.9458 207.865 21.3975C208.472 20.8492 208.95 20.1667 209.3 19.35C209.662 18.5333 209.843 17.5942 209.843 16.5325V0.799999H213.553V16.725C213.553 18.6967 213.127 20.4175 212.275 21.8875C211.424 23.3575 210.239 24.5008 208.723 25.3175C207.218 26.1225 205.479 26.525 203.508 26.525ZM218.448 26V0.799999H228.633C228.878 0.799999 229.181 0.811666 229.543 0.834999C229.905 0.846666 230.249 0.881666 230.576 0.939999C231.976 1.16167 233.142 1.64 234.076 2.375C235.021 3.11 235.726 4.0375 236.193 5.1575C236.66 6.2775 236.893 7.51417 236.893 8.8675C236.893 10.8742 236.38 12.6067 235.353 14.065C234.326 15.5117 232.786 16.4158 230.733 16.7775L229.246 16.9525H222.106V26H218.448ZM233.183 26L228.213 15.745L231.906 14.8L237.366 26H233.183ZM222.106 13.4875H228.493C228.726 13.4875 228.983 13.4758 229.263 13.4525C229.555 13.4292 229.829 13.3883 230.086 13.33C230.832 13.155 231.433 12.8342 231.888 12.3675C232.343 11.8892 232.67 11.3408 232.868 10.7225C233.066 10.1042 233.166 9.48583 233.166 8.8675C233.166 8.24917 233.066 7.63667 232.868 7.03C232.67 6.41167 232.343 5.86917 231.888 5.4025C231.433 4.92417 230.832 4.5975 230.086 4.4225C229.829 4.3525 229.555 4.30583 229.263 4.2825C228.983 4.25917 228.726 4.2475 228.493 4.2475H222.106V13.4875ZM241.212 26V0.799999H257.312V4.2475H244.869V11.3175H255.212V14.765H244.869V22.5525H257.312V26H241.212ZM270.171 26.525C268.363 26.525 266.729 26.2158 265.271 25.5975C263.824 24.9675 262.628 24.075 261.683 22.92C260.75 21.7533 260.143 20.3708 259.863 18.7725L263.678 18.195C264.063 19.735 264.868 20.9367 266.093 21.8C267.318 22.6517 268.748 23.0775 270.381 23.0775C271.396 23.0775 272.329 22.92 273.181 22.605C274.033 22.2783 274.715 21.8175 275.228 21.2225C275.753 20.6158 276.016 19.8925 276.016 19.0525C276.016 18.5975 275.934 18.195 275.771 17.845C275.619 17.495 275.403 17.1917 275.123 16.935C274.855 16.6667 274.523 16.4392 274.126 16.2525C273.741 16.0542 273.315 15.885 272.848 15.745L266.391 13.8375C265.761 13.6508 265.119 13.4117 264.466 13.12C263.813 12.8167 263.212 12.4258 262.663 11.9475C262.127 11.4575 261.689 10.8567 261.351 10.145C261.013 9.42167 260.843 8.54667 260.843 7.52C260.843 5.96833 261.24 4.65583 262.033 3.5825C262.838 2.4975 263.923 1.68083 265.288 1.1325C266.653 0.572498 268.182 0.292498 269.873 0.292498C271.577 0.315831 273.099 0.619165 274.441 1.2025C275.794 1.78583 276.914 2.62583 277.801 3.7225C278.699 4.8075 279.318 6.12583 279.656 7.6775L275.736 8.3425C275.561 7.3975 275.188 6.58667 274.616 5.91C274.044 5.22167 273.344 4.69667 272.516 4.335C271.688 3.96167 270.789 3.76917 269.821 3.7575C268.888 3.73417 268.03 3.87417 267.248 4.1775C266.478 4.48083 265.86 4.90667 265.393 5.455C264.938 6.00333 264.711 6.63333 264.711 7.345C264.711 8.045 264.915 8.61083 265.323 9.0425C265.732 9.47417 266.233 9.81833 266.828 10.075C267.435 10.32 268.036 10.5242 268.631 10.6875L273.286 12C273.869 12.1633 274.528 12.385 275.263 12.665C276.01 12.9333 276.728 13.3125 277.416 13.8025C278.116 14.2925 278.693 14.9458 279.148 15.7625C279.603 16.5675 279.831 17.5825 279.831 18.8075C279.831 20.0792 279.574 21.1992 279.061 22.1675C278.548 23.1242 277.842 23.9292 276.943 24.5825C276.057 25.2242 275.03 25.7083 273.863 26.035C272.697 26.3617 271.466 26.525 270.171 26.525Z" fill="black"/>
</svg>
